# xmcd
#
# Track frame offsets: 
#        150
#        19342
#        39422
#        57887
#        71082
#        86270
#        104567
#        126867
#        160600
#        177890
#        202100
#        214070
#        225705
#        255337
#        281612
#        303662
#        322977
#
# Disc length: 4565 seconds
#
# Revision: 0
# Processed by: cddbd v1.5PL3 Copyright (c) Steve Scherf et al.
# Submitted via: ExactAudioCopy v0.95a4
#
DISCID=ec11d311
DTITLE=Various Artist - Death Disco
DYEAR=2004
DGENRE=Electronic
TTITLE0=Public Image Ltd - Death Disco
TTITLE1=The Steel Leg vs The Electric Dread - Haile Unlikely
TTITLE2=Gang of Four - I Love a Man in Uniform
TTITLE3=Delta 5 - Journey
TTITLE4=The Normal - Warm Leatherette
TTITLE5=Throbbing Gristle - United
TTITLE6=Brian Eno and David Byrne - The Jezebel Spirit
TTITLE7=Cabaret Voltaire - Yashar (John Robie remix)
TTITLE8=Rip Rig and Panic - Bob Hope Takes Risks
TTITLE9=The Higsons - Put the Punk Back into Funk
TTITLE10=Lounge Lizards - Do the Wrong Thing
TTITLE11=XTC - Meccanik Dancing (Oh We Go!)
TTITLE12=Buzzcocks - Why Can't I Touch It?
TTITLE13=Simple Minds - Theme for Great Cities
TTITLE14=Human League - Hard Times
TTITLE15=Heaven 17 - (We Don't Need This) Fascist Groove Thing
TTITLE16=Arto Lindsay - Ambitious Lovers
EXTD=
EXTT0=
EXTT1=
EXTT2=
EXTT3=
EXTT4=
EXTT5=
EXTT6=
EXTT7=
EXTT8=
EXTT9=
EXTT10=
EXTT11=
EXTT12=
EXTT13=
EXTT14=
EXTT15=
EXTT16=
PLAYORDER=
